<svg xmlns="http://www.w3.org/2000/svg" width="125" height="30" viewBox="0 0 1250 300" fill="none" preserveAspectRatio="xMidYMid meet">
    <path
        fill="#000"
        d="M1094 276c-14 1-27-18-37-45-15 19-31 32-48 34-27 3-50-14-53-48-6-61 44-99 80-107 4-1 6-1 8-2 1-51 12-104 45-108 22-2 32 16 34 41 5 49-14 102-37 146 8 29 20 55 37 61 2 1 3 3 3 4 2-2 6-3 11-4 2 0 4 0 6-1 16-5 51-23 51-47 0-9-10-15-20-21-5-2-10-5-15-8-6-5-11-12-11-23 0-20 14-37 32-49 15-11 32-17 46-17 8 0 15 12 15 19 0 7-1 9-13 10-20 2-41 17-41 35 0 9 9 13 20 19 5 2 10 5 15 9 9 6 16 14 16 30 0 30-44 63-79 63-4 0-5-1-6-2-1-1-2-3-6-3-6 0-20 0-22-5-1 1-2 2-4 2 0 0 0 0-1 0l0 0c-4 0-8 1-12 3-3 2-4 4-5 7-1 3-2 6-9 7zm-50-131c-26 5-62 30-57 73 1 12 10 23 22 22 13-2 28-15 41-36-2-9-3-18-4-27-1-9-2-20-2-32zm36 10c1-4 2-8 4-11 11-29 25-64 21-103-2-14-7-17-12-17-18 2-19 75-15 114 0 5 1 11 2 17zm-905 47c-3-6-6-12-9-18 31-12 54-42 54-76 0-42-39-76-97-80 0-4-1-7-2-10 0-2-1-4-3-5-1-2-3-3-5-3-3 0-5 1-6 2-2 1-3 2-4 4-2 3-4 7-6 12-27 3-50 14-66 28-16 15-26 34-26 51 0 5 1 9 1 12 1 3 2 5 5 7 2 1 4 1 5 1l0 0h0c0 0 0 0 1 0 1 0 2 0 4 1 2 2 4 4 6 7l0 1c1 2 2 3 4 5 2 2 4 3 7 3 2 0 4-1 6-2 2-2 2-4 2-6 1-2 0-6 0-9 0-1 0-1 0-2l0 0 0 0c-1-12 2-25 9-36 6-9 15-17 28-21-9 32-19 73-26 109-4 19-8 37-10 50-2 14-4 24-4 29 0 4 1 8 2 10 2 3 5 4 7 5 2 0 3 0 4 0l0 0c1 0 1 0 2 0 1 0 2 0 3 1 3 3 4 5 5 8l0 1c1 1 2 3 3 5 2 2 4 3 7 3 4 0 6-3 8-6 2-3 3-7 4-13l0 0c1-6 1-14 2-24l0 0c0-4 0-7 1-12 1-15 2-35 6-60 9-55 15-85 19-105l0 0c1-2 1-4 2-6 18 2 32 8 42 17 10 10 15 24 15 39 0 19-8 34-23 42-11-13-22-15-31-15-5 0-9 2-14 5-4 3-6 7-6 14 0 8 2 14 8 18 5 4 12 6 19 7 10 31 22 58 34 77 6 10 12 18 18 24 6 5 12 9 19 9 7 0 11-4 14-7 1 0 1-1 2-1 1-1 2-2 3-3 1-1 2-2 4-2l0 0 0 0 1 0 0 0c1-1 2-1 3-2 1 0 2-1 3-2 1-1 2-2 2-4l0 0v0c0-3-1-4-2-6-1-1-3-2-4-3-1 0-1-1-2-2l0 0 0 0 0 0c-3-1-6-4-10-7-21-18-29-38-38-59zm60-23c0-46 30-74 71-74 29 0 54 14 54 36 0 22-19 36-42 36-14 0-31-5-43-14-1 3-1 5-1 8 0 33 33 55 71 55 21 0 33-6 44-15 4-4 8-7 11-11l0 0c2-2 4-3 6-5 0-1 0-1 0-2 0-32 8-68 14-78 3-4 5-5 7-5 10 0 23 17 23 33 0 5-1 11-2 18l0 0c-1 10-3 21-3 34 0 18 5 28 18 28 17 0 31-23 36-46 0-2 1-4 1-6 2-10 4-17 10-17 6 0 11 6 13 17 0 2 1 6 1 10v0l0 0c1 9 2 20 5 33 5 20 13 29 23 29 17 0 24-38 24-69 0-14-3-20-12-27-7-5-11-14-11-23 0-7 5-18 17-18 19 0 32 29 32 63 0 40-15 100-53 100-23 0-31-19-37-32-3-7-5-12-9-12-1 0-4 2-7 6-8 9-22 25-47 25-15 0-30-10-37-30-2 3-5 6-7 9-16 16-39 30-67 30-48 0-103-28-103-86zm41-28c9 2 17 3 24 3 18 0 26-8 26-17 0-8-10-15-19-15-14 0-26 7-31 29zm514-16c0 2 0 3-3 3-1 0-2 0-3 0-1 0-2 0-3 0-1 0-3 1-4 2-2 1-3 2-5 2-2 0-5-1-8-3-2-1-4-2-6-3 0 1 0 1 0 2l0 0 0 0 0 0c1 5 2 10 3 16l1 2 0 0c9 39 18 80 38 80 16 0 30-6 40-23-2-16-4-32-5-47-3-28-4-54-4-67 0-14 3-19 9-19 10 0 30 13 30 31 0 17-1 30-1 39v0 0c0 6 0 10 0 14 0 8 1 12 4 12 4 0 6-5 10-14 4-7 9-18 18-31 11-17 25-28 36-28 17 0 23 13 23 23 0 24-24 27-33 28l0 0c-12 1-27 13-37 37-6 16-10 36-10 60 0 9-3 14-9 14-8 0-21-5-23-13-2-5-3-11-4-17-5 15-20 36-42 36-31 0-43-29-50-46-3-7-5-12-7-12-3 0-6 5-11 12-2 3-5 8-8 12-11 14-30 25-51 25-26 0-52-18-52-58 0-51 45-98 103-98 36 0 64 18 64 29zm-102 93c21-3 30-34 34-81 1-7 7-14 13-18-3-1-6-1-8-1-33 0-60 33-64 59-4 27 8 43 25 41z"
    />
</svg>
